<svg class="studiocollin-logo" width="502" height="113" viewBox="0 0 502 113" fill="none" xmlns="http://www.w3.org/2000/svg"><path fill="#fff" d="M0 0h502v113H0z"/><g clip-path="url(#a)" fill="#000"><path d="M75.227 46.715c2.633 1.688 4.16 4.59 4.53 8.704H70.96c-.105-1.108-.421-2.005-.948-2.69-.948-1.214-2.633-1.794-4.95-1.794-1.897 0-3.266.316-4.108.897-.843.58-1.212 1.318-1.212 2.11 0 1.002.422 1.74 1.317 2.215.843.475 3.897 1.266 9.164 2.427 3.476.844 6.11 2.057 7.847 3.745 1.738 1.688 2.58 3.798 2.58 6.33 0 3.323-1.263 6.066-3.739 8.176-2.475 2.11-6.32 3.165-11.48 3.165-5.162 0-9.217-1.108-11.693-3.376-2.475-2.268-3.792-5.064-3.792-8.545h8.954c.21 1.582.579 2.69 1.21 3.323 1.107 1.16 3.108 1.74 6.057 1.74 1.738 0 3.108-.263 4.108-.79 1.001-.528 1.528-1.267 1.528-2.322 0-1.055-.422-1.74-1.212-2.268-.79-.527-3.897-1.424-9.163-2.637-3.792-.95-6.478-2.11-8.058-3.535-1.58-1.424-2.37-3.428-2.37-6.066 0-3.112 1.211-5.802 3.634-8.018 2.422-2.215 5.846-3.376 10.27-3.376 4.424 0 7.636.844 10.27 2.48l.052.105ZM102.613 72.562v6.594l-4.16.158c-4.16.159-7.005-.58-8.532-2.162-1-1.003-1.475-2.585-1.475-4.642V51.726H83.76V45.45h4.687v-9.39h8.69v9.39h5.477v6.277h-5.477v17.83c0 1.371.158 2.215.527 2.584.368.37 1.422.528 3.213.528h1.737v-.106ZM129.842 74.092s-.263.422-.632.95c-.369.527-.737.949-1.159 1.371-1.369 1.213-2.686 2.057-4.002 2.532-1.317.475-2.792.686-4.53.686-5.003 0-8.321-1.794-10.059-5.38-.948-2.005-1.475-4.906-1.475-8.757V45.132h9.006v20.31c0 1.898.211 3.375.685 4.325.79 1.688 2.37 2.584 4.74 2.584 3.002 0 5.056-1.213 6.162-3.64.579-1.318.843-3.059.843-5.222V45.132h8.9V78.84h-8.532v-4.748h.053ZM177.505 33.316V78.84h-8.532v-4.641c-1.264 2.004-2.686 3.428-4.266 4.378-1.58.95-3.581 1.371-6.004 1.371-3.95 0-7.215-1.582-9.901-4.8s-4.003-7.28-4.003-12.238c0-5.75 1.317-10.286 3.95-13.557 2.633-3.27 6.162-4.958 10.586-4.958 2.054 0 3.845.422 5.425 1.319 1.58.896 2.844 2.162 3.844 3.745V33.316h8.901Zm-23.7 28.855c0 3.112.632 5.591 1.843 7.437 1.212 1.9 3.055 2.796 5.53 2.796 2.476 0 4.372-.95 5.688-2.796 1.317-1.846 1.949-4.272 1.949-7.226 0-4.115-1.054-7.069-3.107-8.862-1.264-1.055-2.739-1.583-4.424-1.583-2.581 0-4.477.95-5.688 2.901-1.212 1.952-1.791 4.379-1.791 7.227v.106ZM194.516 33v8.123h-8.901V33h8.901Zm0 12.132V78.84h-8.901V45.132h8.901ZM231.066 49.405c2.844 3.587 4.266 7.754 4.266 12.66 0 4.906-1.422 9.178-4.266 12.713-2.844 3.534-7.162 5.275-12.956 5.275-5.793 0-10.112-1.741-12.956-5.275-2.844-3.535-4.265-7.754-4.265-12.713 0-4.958 1.421-9.073 4.265-12.66 2.844-3.587 7.163-5.328 12.956-5.328 5.794 0 10.112 1.794 12.956 5.328Zm-12.956 2.11c-2.58 0-4.529.897-5.951 2.743-1.422 1.846-2.107 4.431-2.107 7.807 0 3.376.685 5.96 2.107 7.807 1.422 1.846 3.371 2.743 5.951 2.743 2.581 0 4.53-.897 5.899-2.743 1.369-1.846 2.054-4.43 2.054-7.807 0-3.376-.685-5.96-2.054-7.807-1.369-1.846-3.371-2.743-5.899-2.743ZM305.852 57.212h-9.006a7.5 7.5 0 0 0-1.264-3.376c-1-1.371-2.528-2.057-4.582-2.057-2.949 0-5.003 1.477-6.056 4.43-.58 1.583-.843 3.64-.843 6.225 0 2.585.263 4.484.843 5.961 1.053 2.796 3.002 4.22 5.898 4.22 2.054 0 3.529-.58 4.372-1.688.842-1.108 1.369-2.532 1.58-4.325h9.005c-.21 2.69-1.158 5.222-2.896 7.596-2.739 3.85-6.847 5.802-12.271 5.802-5.425 0-9.375-1.582-11.956-4.8-2.58-3.218-3.844-7.385-3.844-12.502 0-5.802 1.422-10.286 4.213-13.504 2.791-3.218 6.689-4.8 11.639-4.8 4.214 0 7.69.95 10.375 2.848 2.686 1.9 4.266 5.223 4.793 10.023v-.053ZM339.927 49.405c2.844 3.587 4.266 7.754 4.266 12.66 0 4.906-1.422 9.178-4.266 12.713-2.844 3.534-7.162 5.275-12.956 5.275-5.793 0-10.112-1.741-12.956-5.275-2.844-3.535-4.266-7.754-4.266-12.713 0-4.958 1.422-9.073 4.266-12.66 2.844-3.587 7.163-5.328 12.956-5.328 5.794 0 10.112 1.794 12.956 5.328Zm-12.956 2.11c-2.58 0-4.529.897-5.951 2.743-1.422 1.846-2.107 4.431-2.107 7.807 0 3.376.685 5.96 2.107 7.807 1.422 1.846 3.371 2.743 5.951 2.743 2.581 0 4.53-.897 5.899-2.743 1.369-1.846 2.054-4.43 2.054-7.807 0-3.376-.685-5.96-2.054-7.807-1.369-1.846-3.371-2.743-5.899-2.743ZM350.671 33.264h8.795v45.575h-8.795V33.264ZM368.262 33.264h8.795v45.575h-8.795V33.264ZM394.647 33v8.123h-8.9V33h8.9Zm0 12.132V78.84h-8.9V45.132h8.9ZM419.032 51.673c-3.002 0-5.056 1.266-6.162 3.798-.58 1.32-.843 3.06-.843 5.117V78.84h-8.743V45.184h8.48v4.906c1.106-1.74 2.212-2.954 3.212-3.745 1.791-1.372 4.108-2.058 6.9-2.058 3.476 0 6.32.897 8.532 2.743 2.212 1.847 3.317 4.853 3.317 9.073v22.683h-9.005V58.32c0-1.794-.211-3.112-.685-4.062-.843-1.74-2.528-2.585-4.951-2.585h-.052ZM441.625 69.608H451v9.231h-9.375v-9.23Z"/></g><defs><clipPath id="a"><path fill="#fff" transform="translate(50 33)" d="M0 0h401v47H0z"/></clipPath></defs></svg>